<?xml version="1.0" encoding="UTF-8"?>
<svg id="Capa_1" data-name="Capa 1" xmlns="http://www.w3.org/2000/svg" viewBox="0 0 100 100">
  <defs>
    <style>
      .cls-1 {
        fill: #ef3030;
      }
    </style>
  </defs>
  <path class="cls-1" d="m12.25,22.59c0-.39,0-.79,0-1.18.06-.16.15-.31.17-.47.19-1.25.69-2.37,1.56-3.28,1.19-1.25,2.39-2.49,3.66-3.64,1.47-1.34,3.23-1.88,5.24-1.61,1.64.22,2.93,1.02,4.08,2.17,7.44,7.45,14.88,14.89,22.33,22.33.24.24.49.46.91.85.25-.35.42-.66.66-.9,7.37-7.38,14.74-14.75,22.12-22.12.24-.24.49-.49.74-.72,2.56-2.27,6.27-2.27,8.78.05,1.21,1.12,2.38,2.28,3.49,3.49,1.39,1.51,1.95,3.3,1.67,5.36-.22,1.61-1.01,2.89-2.14,4.01-7.43,7.42-14.85,14.85-22.29,22.27-.26.25-.62.4-.93.6.02.14.05.28.07.42.28.2.58.37.82.61,7.36,7.35,14.72,14.71,22.07,22.06.28.28.56.56.82.85,2.23,2.55,2.23,6.24-.06,8.73-1.13,1.23-2.36,2.37-3.54,3.56-1.86,1.88-5.37,2.08-7.35.98-.76-.42-1.47-.99-2.09-1.61-7.41-7.38-14.79-14.77-22.18-22.17-.26-.26-.4-.62-.6-.93-.15,0-.31,0-.46,0-.2.31-.36.67-.61.92-7.45,7.47-14.96,14.89-22.35,22.41-2.57,2.61-7.25,2.7-9.7-.02-.89-.99-1.87-1.89-2.81-2.82-.91-.91-1.53-1.98-1.83-3.23-.07-.31-.16-.61-.24-.91,0-.39,0-.79,0-1.18.04-.06.11-.12.12-.18.22-1.83,1.21-3.21,2.48-4.48,7.34-7.3,14.65-14.64,21.98-21.95.26-.26.61-.41.92-.61,0-.15,0-.31,0-.46-.31-.2-.67-.35-.93-.61-7.42-7.4-14.82-14.81-22.24-22.21-1-.99-1.77-2.1-2.1-3.49-.07-.3-.16-.6-.25-.91Z"/>
</svg>