<?xml version="1.0" encoding="UTF-8"?>
<svg id="Capa_1" data-name="Capa 1" xmlns="http://www.w3.org/2000/svg" viewBox="0 0 100 100">
  <path d="m94.06,26.24c-.45,2.21-1.84,3.8-3.38,5.34-15.9,15.86-31.78,31.75-47.65,47.64-2.15,2.15-4.64,3.09-7.58,2.05-1.07-.38-2.13-1.06-2.93-1.86-8.13-8.05-16.22-16.15-24.3-24.26-3.26-3.28-2.99-7.98.56-10.75,2.77-2.16,6.67-1.77,9.42.99,6.23,6.22,12.46,12.45,18.68,18.68.24.24.4.57.73,1.05.37-.5.53-.78.75-1,14.46-14.47,28.92-28.93,43.38-43.39,2.1-2.1,4.53-2.98,7.43-2.07,2.53.8,4.05,2.58,4.71,5.13.05.19.12.37.18.56v1.89Z"/>
</svg>